<?xml version="1.0" encoding="utf-8"?>
<!-- Generator: Adobe Illustrator 24.3.0, SVG Export Plug-In . SVG Version: 6.00 Build 0)  -->
<svg version="1.1" id="Calque_1" xmlns="http://www.w3.org/2000/svg" xmlns:xlink="http://www.w3.org/1999/xlink" x="0px" y="0px"
	 viewBox="0 0 1000 228" style="enable-background:new 0 0 1000 228;" xml:space="preserve">
<style type="text/css">
	.st0{fill:#BABABA;}
	.st1{fill:#D90000;}
</style>
<g>
	<path class="st0" d="M80,149c-21.8,0-39.5,17.7-39.5,39.5c0,1.7,0.1,3.4,0.3,5c2.4,19.4,19,34.5,39.1,34.5
		c20.7,0,37.6-15.9,39.3-36.1c0.1-1.1,0.2-2.3,0.2-3.4C119.5,166.6,101.8,149,80,149L80,149z M60.2,173.6l8.1,8.1
		c-0.6,1.1-1.1,2.2-1.4,3.5H55.4C56,180.8,57.7,176.9,60.2,173.6L60.2,173.6z M55.4,191.9h11.4c0.3,1.2,0.8,2.4,1.4,3.4l-8.1,8.1
		C57.7,200.2,56,196.2,55.4,191.9L55.4,191.9z M76.5,213c-4.3-0.6-8.2-2.3-11.5-4.8l8-8c1.1,0.6,2.2,1.1,3.4,1.4
		C76.5,201.6,76.5,213,76.5,213z M76.5,175.3c-1.3,0.3-2.4,0.8-3.5,1.5l-8-8.1c3.3-2.5,7.2-4.2,11.5-4.8V175.3z M83.4,164
		c4.3,0.6,8.2,2.2,11.5,4.8l-8.1,8.1c-1.1-0.6-2.2-1.1-3.5-1.5C83.4,175.3,83.4,164,83.4,164z M83.4,213v-11.4
		c1.2-0.3,2.4-0.8,3.4-1.4l8.1,8C91.5,210.7,87.7,212.4,83.4,213L83.4,213z M99.7,203.5l-8.1-8.1c0.6-1.1,1.2-2.2,1.5-3.4h11.3
		C103.8,196.2,102.2,200.2,99.7,203.5L99.7,203.5z M93.1,185.1c-0.3-1.2-0.8-2.4-1.4-3.5l8.1-8.1c2.5,3.3,4.1,7.2,4.7,11.5
		L93.1,185.1L93.1,185.1z"/>
	<g>
		<path class="st0" d="M412.5,149c-21.8,0-39.5,17.7-39.5,39.5c0,1.7,0.1,3.4,0.3,5c2.4,19.4,19,34.5,39.1,34.5
			c20.7,0,37.6-15.9,39.3-36.1c0.1-1.1,0.2-2.3,0.2-3.4C452,166.6,434.3,149,412.5,149L412.5,149z M392.7,173.6l8.1,8.1
			c-0.6,1.1-1.1,2.2-1.4,3.5H388C388.6,180.8,390.2,176.9,392.7,173.6L392.7,173.6z M388,191.9h11.4c0.3,1.2,0.8,2.4,1.4,3.4
			l-8.1,8.1C390.2,200.2,388.5,196.2,388,191.9L388,191.9z M409.1,213c-4.3-0.6-8.2-2.3-11.5-4.8l8-8c1.1,0.6,2.2,1.1,3.4,1.4V213z
			 M409.1,175.3c-1.2,0.3-2.4,0.8-3.5,1.5l-8.1-8.1c3.3-2.5,7.2-4.2,11.5-4.8V175.3z M415.9,164c4.3,0.6,8.2,2.2,11.5,4.8l-8.1,8.1
			c-1.1-0.6-2.2-1.1-3.5-1.5V164z M415.9,213v-11.4c1.2-0.3,2.4-0.8,3.4-1.4l8.1,8C424.1,210.7,420.2,212.4,415.9,213L415.9,213z
			 M432.3,203.5l-8.1-8.1c0.6-1.1,1.2-2.2,1.5-3.4H437C436.4,196.2,434.8,200.2,432.3,203.5L432.3,203.5z M425.7,185.1
			c-0.3-1.2-0.8-2.4-1.4-3.5l8.1-8.1c2.5,3.3,4.1,7.2,4.7,11.5L425.7,185.1L425.7,185.1z"/>
		<path class="st0" d="M496.6,136.4l-7.6-7.3v-22.9c0-6-2.2-11.8-6.2-16.2l-28.1-31.1c-0.1-6.5-4.8-11.9-11.1-13.1
			c-33.4-6.3-136.9-22.5-218.8-0.5c-50.6,13.6-102.1,41-102.1,41S33.3,97.7,11.9,125.6c-7.5,9.7-10.6,22.5-11.7,34
			c-1.6,16.1,9,30.7,24.7,34.3l8.2,1.9c0-0.4-0.2-0.9-0.2-1.4c-0.3-2.1-0.4-4.1-0.4-6c0-26.1,21.3-47.4,47.4-47.4
			c26.2,0,47.5,21.3,47.5,47.4c0,1.4-0.1,2.7-0.2,4c-0.1,1.6-0.3,3.2-0.6,4.7l239.5,0.5c-0.2-1.1-0.4-2.2-0.6-3.3
			c-0.3-2.1-0.4-4.1-0.4-6c0-26.1,21.3-47.4,47.4-47.4c26.2,0,47.5,21.3,47.5,47.4c0,1.4-0.1,2.7-0.2,4c-0.1,1.8-0.4,3.6-0.8,5.4
			h3.3l13.6-7.5c14.2-7.8,23.3-22.5,23.9-38.6l0.3-7.1C500.1,141.6,498.9,138.6,496.6,136.4L496.6,136.4z M169.8,89.6l3.7-14.7
			c0,0,55.5-29,148.3-25.8v43.3L173.1,104C173.1,104,173.9,94.8,169.8,89.6L169.8,89.6z M408,85.5L338.1,91V49.9
			c23,1.7,48,5.3,74.8,11.8c2.7,0.6,4.9,2.7,5.8,5.3c0.9,2.7,0.3,5.6-1.5,7.7L408,85.5z"/>
	</g>
</g>
<g>
	<path class="st1" d="M580,149c-21.8,0-39.5,17.7-39.5,39.5c0,1.7,0.1,3.4,0.3,5c2.4,19.4,19,34.5,39.1,34.5
		c20.7,0,37.6-15.9,39.3-36.1c0.1-1.1,0.2-2.3,0.2-3.4C619.5,166.6,601.8,149,580,149L580,149z M560.2,173.6l8.1,8.1
		c-0.6,1.1-1.1,2.2-1.4,3.5h-11.4C556,180.8,557.7,176.9,560.2,173.6L560.2,173.6z M555.4,191.9h11.4c0.3,1.2,0.8,2.4,1.4,3.4
		l-8.1,8.1C557.7,200.2,556,196.2,555.4,191.9L555.4,191.9z M576.5,213c-4.3-0.6-8.2-2.3-11.5-4.8l8-8c1.1,0.6,2.2,1.1,3.4,1.4V213z
		 M576.5,175.3c-1.3,0.3-2.4,0.8-3.5,1.5l-8-8.1c3.3-2.5,7.2-4.2,11.5-4.8V175.3z M583.4,164c4.3,0.6,8.2,2.2,11.5,4.8l-8.1,8.1
		c-1.1-0.6-2.2-1.1-3.5-1.5L583.4,164L583.4,164z M583.4,213v-11.4c1.2-0.3,2.4-0.8,3.4-1.4l8.1,8
		C591.5,210.7,587.7,212.4,583.4,213L583.4,213z M599.7,203.5l-8.1-8.1c0.6-1.1,1.2-2.2,1.5-3.4h11.3
		C603.8,196.2,602.2,200.2,599.7,203.5L599.7,203.5z M593.1,185.1c-0.3-1.2-0.8-2.4-1.4-3.5l8.1-8.1c2.5,3.3,4.1,7.2,4.7,11.5
		L593.1,185.1L593.1,185.1z"/>
	<g>
		<path class="st1" d="M912.5,149c-21.8,0-39.5,17.7-39.5,39.5c0,1.7,0.1,3.4,0.3,5c2.4,19.4,19,34.5,39.1,34.5
			c20.7,0,37.6-15.9,39.3-36.1c0.1-1.1,0.2-2.3,0.2-3.4C952,166.6,934.3,149,912.5,149L912.5,149z M892.7,173.6l8.1,8.1
			c-0.6,1.1-1.1,2.2-1.4,3.5H888C888.6,180.8,890.2,176.9,892.7,173.6L892.7,173.6z M888,191.9h11.4c0.3,1.2,0.8,2.4,1.4,3.4
			l-8.1,8.1C890.2,200.2,888.5,196.2,888,191.9L888,191.9z M909.1,213c-4.3-0.6-8.2-2.3-11.5-4.8l8-8c1.1,0.6,2.2,1.1,3.4,1.4V213z
			 M909.1,175.3c-1.2,0.3-2.4,0.8-3.5,1.5l-8.1-8.1c3.3-2.5,7.2-4.2,11.5-4.8L909.1,175.3L909.1,175.3z M915.9,164
			c4.3,0.6,8.2,2.2,11.5,4.8l-8.1,8.1c-1.1-0.6-2.2-1.1-3.5-1.5L915.9,164L915.9,164z M915.9,213v-11.4c1.2-0.3,2.4-0.8,3.4-1.4
			l8.1,8C924.1,210.7,920.2,212.4,915.9,213L915.9,213z M932.3,203.5l-8.1-8.1c0.6-1.1,1.2-2.2,1.5-3.4H937
			C936.4,196.2,934.8,200.2,932.3,203.5L932.3,203.5z M925.7,185.1c-0.3-1.2-0.8-2.4-1.4-3.5l8.1-8.1c2.5,3.3,4.2,7.2,4.7,11.5
			L925.7,185.1L925.7,185.1z"/>
		<path class="st1" d="M996.6,136.4l-7.6-7.3v-22.9c0-6-2.2-11.8-6.2-16.2l-28.1-31.1c-0.1-6.5-4.8-11.9-11.1-13.1
			c-33.4-6.3-136.9-22.5-218.8-0.5c-50.6,13.6-102.1,41-102.1,41s-89.4,11.4-110.8,39.3c-7.5,9.7-10.6,22.5-11.7,34
			c-1.6,16.1,9,30.7,24.7,34.3l8.2,1.9c0-0.4-0.2-0.9-0.2-1.4c-0.3-2.1-0.4-4.1-0.4-6c0-26.1,21.3-47.4,47.4-47.4
			c26.2,0,47.5,21.3,47.5,47.4c0,1.4-0.1,2.7-0.2,4c-0.1,1.6-0.3,3.2-0.6,4.7l239.5,0.5c-0.2-1.1-0.4-2.2-0.6-3.3
			c-0.3-2.1-0.4-4.1-0.4-6c0-26.1,21.3-47.4,47.4-47.4c26.2,0,47.5,21.3,47.5,47.4c0,1.4-0.1,2.7-0.2,4c-0.1,1.8-0.4,3.6-0.8,5.4
			h3.3l13.6-7.5c14.2-7.8,23.3-22.5,23.9-38.6l0.3-7.1C1000.1,141.6,998.9,138.6,996.6,136.4L996.6,136.4z M669.8,89.6l3.7-14.7
			c0,0,55.5-29,148.3-25.8v43.3L673.1,104C673.1,104,673.9,94.8,669.8,89.6L669.8,89.6z M908,85.5L838.1,91V49.9
			c23,1.7,48,5.3,74.8,11.8c2.7,0.6,4.9,2.7,5.8,5.3c0.9,2.7,0.3,5.6-1.5,7.7L908,85.5z"/>
	</g>
</g>
</svg>
