<?xml version="1.0" encoding="utf-8"?>
<!-- Generator: Adobe Illustrator 24.3.0, SVG Export Plug-In . SVG Version: 6.00 Build 0)  -->
<svg version="1.1" id="Layer_1" xmlns="http://www.w3.org/2000/svg" xmlns:xlink="http://www.w3.org/1999/xlink" x="0px" y="0px"
	 viewBox="0 0 520 520" style="enable-background:new 0 0 520 520;" xml:space="preserve">
<style type="text/css">
	.st0{fill:#0468FC;}
</style>
<g>
	<path class="st0" d="M97.5,280.2c-20.8,0-37.7,16.9-37.7,37.8c0,1.6,0.1,3.2,0.3,4.7c2.3,18.6,18.2,33,37.4,33
		c19.7,0,35.9-15.2,37.6-34.5c0.1-1.1,0.1-2.1,0.1-3.2C135.3,297.1,118.4,280.2,97.5,280.2L97.5,280.2z M78.6,303.7l7.7,7.7
		c-0.6,1-1.1,2.1-1.4,3.3H74.1C74.7,310.6,76.2,306.9,78.6,303.7L78.6,303.7z M74.1,321.3H85c0.3,1.2,0.8,2.2,1.4,3.3l-7.7,7.7
		C76.3,329.1,74.7,325.4,74.1,321.3L74.1,321.3z M94.3,341.4c-4.1-0.6-7.8-2.2-11-4.5l7.7-7.7c1,0.6,2.1,1,3.3,1.3V341.4z
		 M94.3,305.4c-1.2,0.3-2.3,0.8-3.3,1.4l-7.7-7.7c3.2-2.4,6.9-4,11-4.6V305.4z M100.8,294.5c4.1,0.6,7.8,2.2,11,4.6l-7.7,7.7
		c-1-0.6-2.2-1.1-3.3-1.4V294.5z M100.8,341.4v-10.9c1.2-0.3,2.2-0.7,3.2-1.3l7.7,7.7C108.6,339.2,104.9,340.8,100.8,341.4
		L100.8,341.4z M116.4,332.3l-7.7-7.7c0.6-1,1.1-2.1,1.4-3.3H121C120.4,325.4,118.8,329.1,116.4,332.3L116.4,332.3z M110.1,314.7
		c-0.3-1.2-0.8-2.3-1.4-3.3l7.7-7.7c2.4,3.2,4,6.9,4.5,11L110.1,314.7L110.1,314.7z"/>
	<g>
		<path class="st0" d="M410.8,280.2c-20.8,0-37.7,16.9-37.7,37.8c0,1.6,0.1,3.2,0.4,4.7c2.3,18.6,18.2,33,37.4,33
			c19.8,0,35.9-15.2,37.6-34.5c0.1-1.1,0.2-2.1,0.2-3.2C448.6,297.1,431.7,280.2,410.8,280.2L410.8,280.2z M391.9,303.7l7.7,7.7
			c-0.6,1-1.1,2.1-1.4,3.3h-10.9C388,310.6,389.5,306.9,391.9,303.7L391.9,303.7z M387.4,321.3h10.9c0.3,1.2,0.8,2.2,1.4,3.3
			l-7.7,7.7C389.6,329.1,387.9,325.4,387.4,321.3L387.4,321.3z M407.6,341.4c-4.1-0.6-7.8-2.2-11-4.5l7.7-7.7c1,0.6,2.1,1,3.3,1.3
			V341.4z M407.6,305.4c-1.2,0.3-2.3,0.8-3.3,1.4l-7.7-7.7c3.2-2.4,6.9-4,11-4.6V305.4L407.6,305.4z M414.1,294.5
			c4.1,0.6,7.9,2.2,11,4.6l-7.7,7.7c-1-0.6-2.1-1.1-3.3-1.4V294.5z M414.1,341.4v-10.9c1.2-0.3,2.3-0.7,3.3-1.3l7.7,7.7
			C421.9,339.2,418.2,340.8,414.1,341.4L414.1,341.4z M429.7,332.3l-7.7-7.7c0.6-1,1.1-2.1,1.4-3.3h10.8
			C433.7,325.4,432.1,329.1,429.7,332.3L429.7,332.3z M423.4,314.7c-0.3-1.2-0.8-2.3-1.4-3.3l7.7-7.7c2.4,3.2,4,6.9,4.5,11
			L423.4,314.7L423.4,314.7z"/>
		<path class="st0" d="M501.4,260.7v-27.9c0-4.5-3.3-8.3-7.7-9c-10.7-1.6-29.5-4.8-38-7.4c-12.2-3.8-59.1-23.6-75.4-27.4
			c-16.3-3.7-89.6-23.7-159.9,0.7c-11.9,4.1-65.4,29.7-96.8,43c-9.2,0.2-100.9,19.3-105.8,32.4c-4.9,13.1-6.4,19.5-7.3,22.8
			c-0.9,3.3,0,19.2,6.8,30.3c6.9,4,20.3,6.6,35.8,8.3c-0.2-0.9-0.4-1.9-0.5-2.8c-0.2-2-0.4-3.9-0.4-5.7c0-25,20.3-45.3,45.3-45.3
			s45.3,20.3,45.3,45.3c0,1.3-0.1,2.6-0.2,3.8c-0.2,2.8-0.7,5.5-1.5,8.1h0.1l224.9-4.5c-0.1-0.6-0.2-1.1-0.3-1.7
			c-0.3-2-0.4-3.9-0.4-5.7c0-25,20.3-45.3,45.3-45.3c25,0,45.3,20.3,45.3,45.3c0,0.1,0,0.2,0,0.3l1-0.1l38.4-7.2
			c0,0,14.7-7.8,14.7-29.4C510.3,267.1,501.4,260.7,501.4,260.7L501.4,260.7z M278.3,234.2l-84,2.6c1.6-12.6-5.9-15.4-5.9-15.4
			c33.4-30.3,100.7-31.3,100.7-31.3L278.3,234.2z M372.6,230.4l-76.6,2.6l7-42.9c39.5-0.5,62.1,8.2,62.1,8.2l11.3,18.2L372.6,230.4z
			 M415.7,230.1h-21.3l-21.3-29.3c16,6.4,28.8,12.7,36.4,16.6C414.1,219.9,416.7,225,415.7,230.1L415.7,230.1z"/>
	</g>
</g>
</svg>
