<?xml version="1.0" encoding="utf-8"?>
<!-- Generator: Adobe Illustrator 24.3.0, SVG Export Plug-In . SVG Version: 6.00 Build 0)  -->
<svg version="1.1" id="Layer_1" xmlns="http://www.w3.org/2000/svg" xmlns:xlink="http://www.w3.org/1999/xlink" x="0px" y="0px"
	 viewBox="0 0 520 520" style="enable-background:new 0 0 520 520;" xml:space="preserve">
<style type="text/css">
	.st0{fill:#0468FC;}
</style>
<g>
	<path class="st0" d="M137.2,296.1c0-20.2-16.4-36.7-36.7-36.7c-20.2,0-36.7,16.4-36.7,36.7c0,1.6,0.1,3.1,0.3,4.6
		c2.3,18.1,17.7,32.1,36.3,32.1c19.2,0,34.9-14.8,36.5-33.6C137.1,298.2,137.2,297.1,137.2,296.1L137.2,296.1z M82.2,282.2l7.5,7.5
		c-0.6,1-1,2.1-1.3,3.2H77.8C78.3,289,79.9,285.3,82.2,282.2L82.2,282.2z M77.8,299.3h10.6c0.3,1.1,0.7,2.2,1.3,3.1l-7.5,7.5
		C79.9,306.9,78.3,303.3,77.8,299.3L77.8,299.3z M97.4,318.9c-4-0.5-7.6-2.1-10.7-4.4l7.4-7.5c1,0.6,2.1,1,3.2,1.3L97.4,318.9
		L97.4,318.9z M97.4,283.9c-1.2,0.3-2.2,0.8-3.3,1.4l-7.5-7.5c3.1-2.3,6.7-3.9,10.7-4.4L97.4,283.9L97.4,283.9z M103.7,273.3
		c4,0.6,7.7,2.1,10.7,4.4l-7.5,7.5c-1-0.6-2.1-1.1-3.3-1.4L103.7,273.3L103.7,273.3z M103.7,318.9v-10.6c1.1-0.3,2.2-0.7,3.2-1.3
		l7.5,7.5C111.3,316.8,107.7,318.3,103.7,318.9L103.7,318.9z M118.9,310l-7.5-7.5c0.6-1,1.1-2,1.3-3.1h10.6
		C122.7,303.3,121.2,307,118.9,310L118.9,310z M112.8,293c-0.3-1.2-0.7-2.2-1.3-3.2l7.5-7.5c2.3,3.1,3.8,6.7,4.4,10.7H112.8
		L112.8,293z"/>
	<g>
		<path class="st0" d="M398.9,259.4c-20.2,0-36.7,16.4-36.7,36.7c0,1.6,0.1,3.1,0.3,4.6c2.3,18.1,17.7,32.1,36.3,32.1
			c19.2,0,34.9-14.8,36.5-33.6c0.1-1,0.1-2.1,0.1-3.1C435.6,275.8,419.2,259.4,398.9,259.4L398.9,259.4z M380.5,282.2l7.5,7.5
			c-0.6,1-1,2.1-1.3,3.2h-10.5C376.7,289,378.2,285.3,380.5,282.2L380.5,282.2z M376.1,299.3h10.6c0.3,1.1,0.7,2.2,1.3,3.1l-7.5,7.5
			C378.2,306.9,376.7,303.3,376.1,299.3L376.1,299.3z M395.7,318.9c-4-0.5-7.6-2.1-10.6-4.4l7.4-7.5c1,0.6,2.1,1,3.2,1.3V318.9z
			 M395.7,283.9c-1.2,0.3-2.2,0.8-3.2,1.4l-7.5-7.5c3.1-2.3,6.7-3.9,10.7-4.4L395.7,283.9L395.7,283.9z M402.1,273.3
			c4,0.6,7.6,2.1,10.7,4.4l-7.5,7.5c-1-0.6-2.1-1.1-3.2-1.4V273.3z M402.1,318.9v-10.6c1.1-0.3,2.2-0.7,3.2-1.3l7.5,7.5
			C409.7,316.8,406,318.3,402.1,318.9L402.1,318.9z M417.3,310l-7.5-7.5c0.6-1,1.1-2,1.4-3.1h10.5C421.1,303.3,419.6,307,417.3,310
			L417.3,310z M411.1,293c-0.3-1.2-0.7-2.2-1.3-3.2l7.5-7.5c2.3,3,3.8,6.7,4.4,10.7L411.1,293L411.1,293z"/>
		<path class="st0" d="M502.1,252.5c-41.9-36.1-91.8-37.9-91.8-37.9l-28.9-9.1c-4.1-1.3-8.5,1-9.8,5.1l-2.3,7.2l-53.1,4l-1.1-10.6
			c-0.3-3.3-3.2-5.8-6.5-5.7l-3.5,0.1c-3.5,0.1-6.2,2.9-6.2,6.3v11.9l-79.7,3.6c1.8-5.8-2.1-9.5-2.1-9.5l33-15.6
			c2-0.9,3.3-3,3.4-5.2c0-2.2-1.2-4.3-3.1-5.3l-3.9-2c-2.6-1.4-5.7-1.6-8.5-0.5c-12.2,4.6-48,18.8-84.6,36.3
			c-54.1,3.8-114.2,14.3-128.6,23.6C10.4,258.5,9,270,10,281.9c1.6,17.4,14.7,31.4,31.8,34.2l23.7,3.8h0.8
			c-3.8-5.4-6.4-11.7-7.2-18.6c-0.2-1.7-0.4-3.5-0.4-5.2c0-23.1,18.8-41.8,41.8-41.8c23.1,0,41.9,18.8,41.9,41.8
			c0,1.2-0.1,2.4-0.2,3.5c-0.6,7.2-3.1,14-7,19.7l224.4-2.3l3.1-0.1c-2.7-4.7-4.6-10-5.3-15.6c-0.2-1.7-0.4-3.5-0.4-5.2
			c0-23.1,18.8-41.8,41.9-41.8c23.1,0,41.8,18.8,41.8,41.8c0,1.2-0.1,2.4-0.2,3.5c-0.4,5.1-1.8,10-4,14.4l51.6-2l3.5-3.8
			c8.8-9.7,14.9-21.5,17.6-34.3C510.9,266,508.2,257.8,502.1,252.5L502.1,252.5z"/>
	</g>
</g>
</svg>
