<?xml version="1.0" encoding="utf-8"?>
<!-- Generator: Adobe Illustrator 24.3.0, SVG Export Plug-In . SVG Version: 6.00 Build 0)  -->
<svg version="1.1" id="Layer_1" xmlns="http://www.w3.org/2000/svg" xmlns:xlink="http://www.w3.org/1999/xlink" x="0px" y="0px"
	 viewBox="0 0 520 520" style="enable-background:new 0 0 520 520;" xml:space="preserve">
<style type="text/css">
	.st0{fill:#0468FC;}
</style>
<g>
	<path class="st0" d="M395.4,316.3c0,1.9,0.2,3.8,0.4,5.7c2.8,22.2,21.7,39.4,44.7,39.4c23.6,0,42.9-18.1,44.9-41.2
		c0.1-1.3,0.2-2.5,0.2-3.9c0-24.9-20.2-45.1-45.1-45.1C415.6,271.2,395.4,291.4,395.4,316.3L395.4,316.3z M468.5,312.5h-13
		c-0.4-1.4-0.9-2.7-1.6-4l9.2-9.2C465.9,303,467.8,307.5,468.5,312.5L468.5,312.5z M463.1,333.4l-9.2-9.2c0.7-1.2,1.3-2.5,1.7-3.9
		h13C467.8,325.1,465.9,329.7,463.1,333.4L463.1,333.4z M444.4,331.3c1.4-0.4,2.7-0.9,3.9-1.6l9.2,9.2c-3.8,2.9-8.2,4.8-13.1,5.4
		L444.4,331.3L444.4,331.3z M444.4,288.3c4.9,0.7,9.4,2.6,13.2,5.5l-9.2,9.2c-1.2-0.7-2.5-1.3-4-1.6L444.4,288.3L444.4,288.3z
		 M417.9,299.3l9.2,9.2c-0.7,1.2-1.3,2.5-1.6,4h-13C413.2,307.5,415,303,417.9,299.3L417.9,299.3z M436.6,301.3
		c-1.4,0.4-2.7,0.9-4,1.6l-9.2-9.2c3.8-2.9,8.3-4.8,13.1-5.5L436.6,301.3L436.6,301.3z M423.5,338.9l9.2-9.2
		c1.2,0.7,2.5,1.2,3.9,1.6v13C431.7,343.6,427.3,341.7,423.5,338.9L423.5,338.9z M412.5,320.3h13c0.4,1.4,0.9,2.7,1.6,3.9l-9.2,9.2
		C415.1,329.6,413.1,325.1,412.5,320.3L412.5,320.3z"/>
	<g>
		<path class="st0" d="M61.6,316.3c0,1.9,0.2,3.8,0.4,5.7c2.8,22.2,21.7,39.4,44.7,39.4c23.6,0,42.9-18.1,44.9-41.2
			c0.1-1.3,0.2-2.5,0.2-3.9c0-24.9-20.2-45.1-45.1-45.1C81.8,271.2,61.6,291.4,61.6,316.3L61.6,316.3z M134.7,312.5h-13
			c-0.4-1.4-0.9-2.7-1.6-4l9.2-9.2C132.1,303,134,307.5,134.7,312.5L134.7,312.5z M129.3,333.4l-9.2-9.2c0.7-1.2,1.3-2.5,1.7-3.9
			h12.9C134,325.1,132.1,329.7,129.3,333.4L129.3,333.4z M110.6,331.3c1.4-0.4,2.7-0.9,3.9-1.6l9.2,9.2c-3.8,2.9-8.2,4.8-13.1,5.4
			V331.3z M110.6,288.3c4.9,0.7,9.4,2.6,13.2,5.5l-9.2,9.2c-1.2-0.7-2.6-1.3-4-1.6V288.3z M84.1,299.3l9.2,9.2
			c-0.7,1.2-1.3,2.5-1.6,4h-13C79.4,307.5,81.3,303,84.1,299.3L84.1,299.3z M102.8,301.3c-1.4,0.4-2.8,0.9-4,1.6l-9.2-9.2
			c3.8-2.9,8.3-4.8,13.2-5.5L102.8,301.3L102.8,301.3L102.8,301.3z M89.7,338.9l9.2-9.2c1.2,0.7,2.5,1.2,3.9,1.6v13
			C97.9,343.6,93.5,341.7,89.7,338.9L89.7,338.9z M78.7,320.3h13.1c0.4,1.4,0.9,2.7,1.6,3.9l-9.2,9.2
			C81.3,329.6,79.3,325.1,78.7,320.3L78.7,320.3z"/>
		<path class="st0" d="M9,292.5l5.1,27.7c1.2,6.3,6.6,10.9,13,10.9h25.9c-0.7-2.5-1.3-5.1-1.6-7.8c-0.3-2.5-0.5-4.9-0.5-7
			c0-30.7,25-55.7,55.7-55.7c30.7,0,55.7,25,55.7,55.7c0,1.6-0.1,3.2-0.2,4.8c-0.3,3.5-0.9,6.8-1.8,10.1h226.6
			c-0.7-2.5-1.3-5.1-1.6-7.8c-0.3-2.5-0.5-4.9-0.5-7c0-30.7,25-55.7,55.7-55.7c30.7,0,55.7,25,55.7,55.7c0,1.6-0.1,3.2-0.2,4.8
			c-0.3,3.5-0.9,6.9-1.8,10.1h6.6c0,0,11.2-36,7.3-52.4c-3.1-12.7-11-17.9-11-17.9s0.7-18.7-9.3-38.1c-2.1-4.1-18.8-26.7-43.8-49.3
			c-11.4-10.3-20.4-13.5-35.8-13.6c-43.6-0.1-143.8-0.4-167.5,0.1c-15.8,0.2-24.8,2.7-38.5,10.9c-1.4,0.8-2.1,2.4-1.7,3.9
			c0.4,1.5,1.8,2.6,3.4,2.6h0.9l-44.2,43.3c0,0-17.5,0.1-23.3,0.3c-28.9,1.2-81,5.5-112.6,29.5c-4.2,3.2-7,8.1-7.7,13.4
			c-0.9,6.9-1,14.5-1,14.5C10.8,281.1,8,286.8,9,292.5L9,292.5z M372.2,177.3h45.7c5,0,9.8,1.7,13.7,4.7
			c10.7,8.4,19.1,17.6,25.3,25.7c1.3,1.7,1.5,3.9,0.6,5.7c-0.9,1.9-2.8,3.1-4.9,3.1l-80.4,1.1L372.2,177.3L372.2,177.3z
			 M347.9,177.3h3.1V218l-3.1,0.1L347.9,177.3L347.9,177.3z M183.6,220.3l43.9-43h99.2v40.9l-105.2,1.5c0.1-0.5,0.1-1,0.1-1.6
			c0-7-5-12.8-11.2-12.8c-6.2,0-11.2,5.7-11.2,12.8c0,0.6,0.1,1.3,0.2,1.9L183.6,220.3z"/>
	</g>
</g>
</svg>
