<?xml version="1.0" encoding="utf-8"?>
<!-- Generator: Adobe Illustrator 24.3.0, SVG Export Plug-In . SVG Version: 6.00 Build 0)  -->
<svg version="1.1" id="Layer_1" xmlns="http://www.w3.org/2000/svg" xmlns:xlink="http://www.w3.org/1999/xlink" x="0px" y="0px"
	 viewBox="0 0 520 520" style="enable-background:new 0 0 520 520;" xml:space="preserve">
<style type="text/css">
	.st0{fill:#0468FC;}
</style>
<g>
	<path class="st0" d="M410.8,330.1c0,1.8,0.1,3.6,0.4,5.4c2.6,21,20.6,37.3,42.3,37.3c22.3,0,40.6-17.2,42.5-39
		c0.1-1.2,0.2-2.4,0.2-3.6c0-23.5-19.1-42.6-42.6-42.6C429.9,287.5,410.8,306.6,410.8,330.1L410.8,330.1z M479.9,326.5h-12.3
		c-0.4-1.3-0.9-2.6-1.5-3.8l8.7-8.7C477.5,317.7,479.2,321.9,479.9,326.5L479.9,326.5z M474.8,346.4l-8.8-8.8
		c0.7-1.2,1.3-2.4,1.6-3.7h12.2C479.2,338.5,477.5,342.8,474.8,346.4L474.8,346.4z M457.1,344.4c1.3-0.4,2.5-0.8,3.7-1.5l8.7,8.7
		c-3.6,2.7-7.7,4.5-12.4,5.1V344.4L457.1,344.4z M457.1,303.7c4.6,0.6,8.9,2.5,12.5,5.2l-8.7,8.7c-1.2-0.7-2.4-1.2-3.8-1.6V303.7z
		 M432.1,314.1l8.7,8.7c-0.7,1.2-1.2,2.4-1.6,3.8h-12.3C427.6,321.9,429.4,317.7,432.1,314.1L432.1,314.1z M449.7,316
		c-1.3,0.4-2.6,0.9-3.8,1.6l-8.7-8.7c3.6-2.7,7.8-4.5,12.5-5.2V316z M437.4,351.5l8.7-8.7c1.1,0.7,2.4,1.2,3.7,1.5v12.3
		C445.1,356,440.9,354.2,437.4,351.5L437.4,351.5z M426.9,333.9h12.3c0.4,1.3,0.9,2.6,1.5,3.7l-8.7,8.7
		C429.4,342.8,427.5,338.5,426.9,333.9L426.9,333.9z"/>
	<g>
		<path class="st0" d="M58,330.1c0,1.8,0.2,3.6,0.4,5.4c2.7,21,20.6,37.3,42.3,37.3c22.3,0,40.6-17.2,42.5-39
			c0.1-1.2,0.2-2.4,0.2-3.6c0-23.5-19.1-42.6-42.7-42.6C77.2,287.5,58,306.6,58,330.1L58,330.1z M127.2,326.5h-12.3
			c-0.3-1.3-0.9-2.6-1.5-3.8l8.7-8.7C124.8,317.7,126.6,321.9,127.2,326.5L127.2,326.5z M122.1,346.4l-8.8-8.8
			c0.7-1.2,1.3-2.4,1.6-3.7h12.2C126.5,338.5,124.8,342.8,122.1,346.4L122.1,346.4z M104.4,344.4c1.3-0.4,2.6-0.8,3.7-1.5l8.7,8.7
			c-3.6,2.7-7.8,4.5-12.4,5.1L104.4,344.4L104.4,344.4L104.4,344.4z M104.4,303.7c4.7,0.6,8.9,2.5,12.4,5.2l-8.7,8.7
			c-1.2-0.7-2.4-1.2-3.8-1.6L104.4,303.7L104.4,303.7z M79.3,314.1l8.7,8.7c-0.7,1.2-1.2,2.4-1.6,3.8H74.2
			C74.9,321.9,76.7,317.7,79.3,314.1L79.3,314.1z M97,316c-1.3,0.4-2.6,0.9-3.8,1.6l-8.7-8.7c3.6-2.7,7.8-4.5,12.5-5.2V316z
			 M84.6,351.5l8.7-8.7c1.1,0.7,2.4,1.2,3.7,1.5v12.3C92.4,356,88.2,354.2,84.6,351.5L84.6,351.5z M74.2,333.9h12.4
			c0.3,1.3,0.9,2.6,1.5,3.7l-8.7,8.7C76.7,342.8,74.8,338.5,74.2,333.9L74.2,333.9z"/>
		<path class="st0" d="M14.5,340l34.2-0.5c-0.2-0.9-0.3-1.7-0.5-2.6c-0.3-2.4-0.5-4.6-0.5-6.6c0-29.2,23.7-52.9,52.9-52.9
			c29.2,0,52.9,23.8,52.9,52.9c0,1.5-0.1,3-0.2,4.5c-0.1,1-0.3,2.1-0.4,3.1l247.7-3.9c-0.1-1.3-0.1-2.5-0.1-3.7
			c0-29.2,23.7-52.9,52.9-52.9c26.6,0,48.6,19.7,52.3,45.3c3-6.5,5.8-15.4,4.7-24c-2.1-16.5-16.5-32.5-17.3-40.6
			c-0.9-8.1,2.7-14.7,0.6-26.1c-2.1-11.4-21.9-49.1-42-61.9c-14.6-9.3-25.1-15.6-69.5-18.2c-62.5-3.6-105.3,0.5-143,11.9
			c-22.4,6.8-99,46.6-122.2,59.5c-27.5,15.2-38.6,17.6-57.6,24.5c-21.9,8-35.9,25.4-41.4,38.6C12.4,299.4,8.4,315.9,14.5,340
			L14.5,340z M365.9,222.9l-6.5-55.7c36.4,0.6,74.1,3.5,77.4,16.2c2,7.6-8,25.6-19.9,30.9C407.7,218.4,393.4,219.9,365.9,222.9
			L365.9,222.9z M188.4,214.7l4.2-12.1c49.2-26.4,74.3-35.5,135.3-35.5h8.6l-7,59.4c-64,5.7-139.5,10.3-139.5,10.3
			C196.1,224.3,188.4,214.7,188.4,214.7L188.4,214.7z"/>
	</g>
</g>
</svg>
