<?xml version="1.0" encoding="utf-8"?>
<!-- Generator: Adobe Illustrator 24.3.0, SVG Export Plug-In . SVG Version: 6.00 Build 0)  -->
<svg version="1.1" id="Layer_1" xmlns="http://www.w3.org/2000/svg" xmlns:xlink="http://www.w3.org/1999/xlink" x="0px" y="0px"
	 viewBox="0 0 520 520" style="enable-background:new 0 0 520 520;" xml:space="preserve">
<style type="text/css">
	.st0{fill:#0468FC;}
</style>
<g>
	<path class="st0" d="M96.4,268.6c-20.7,0-37.5,16.8-37.5,37.5c0,1.6,0.1,3.2,0.3,4.7c2.3,18.5,18.1,32.8,37.2,32.8
		c19.7,0,35.7-15.1,37.4-34.3c0.1-1.1,0.2-2.1,0.2-3.2C133.9,285.4,117.1,268.6,96.4,268.6L96.4,268.6z M77.6,292l7.7,7.6
		c-0.6,1-1.1,2.1-1.3,3.3H73.1C73.7,298.8,75.2,295.1,77.6,292L77.6,292z M73.1,309.4h10.9c0.3,1.2,0.7,2.3,1.3,3.3l-7.7,7.7
		C75.2,317.2,73.7,313.5,73.1,309.4L73.1,309.4z M93.2,329.5c-4.1-0.6-7.8-2.2-10.9-4.5l7.6-7.6c1,0.6,2.1,1,3.3,1.3L93.2,329.5
		L93.2,329.5z M93.2,293.6c-1.2,0.3-2.3,0.8-3.3,1.4l-7.7-7.7c3.2-2.4,6.9-4,11-4.5V293.6z M99.6,282.9c4.1,0.6,7.8,2.1,11,4.5
		L103,295c-1-0.6-2.1-1.1-3.3-1.4L99.6,282.9L99.6,282.9z M99.6,329.4v-10.8c1.2-0.3,2.3-0.7,3.3-1.3l7.6,7.6
		C107.4,327.3,103.7,328.9,99.6,329.4L99.6,329.4z M115.2,320.4l-7.7-7.7c0.6-1,1.1-2.1,1.4-3.3h10.8
		C119.1,313.5,117.6,317.3,115.2,320.4L115.2,320.4z M108.9,303c-0.3-1.2-0.8-2.3-1.4-3.3l7.7-7.6c2.4,3.1,3.9,6.9,4.5,11L108.9,303
		L108.9,303z"/>
	<g>
		<path class="st0" d="M406.4,268.9c-20.7,0-37.4,16.7-37.4,37.4c0,1.6,0.1,3.2,0.3,4.7c2.3,18.4,18,32.7,37,32.7
			c19.5,0,35.6-15,37.2-34.2c0.1-1.1,0.2-2.1,0.2-3.2C443.7,285.6,427,268.9,406.4,268.9L406.4,268.9z M387.6,292.2l7.6,7.6
			c-0.6,1-1.1,2.1-1.4,3.3h-10.8C383.7,299,385.3,295.3,387.6,292.2L387.6,292.2z M383.1,309.6H394c0.3,1.1,0.8,2.2,1.4,3.2
			l-7.6,7.7C385.3,317.4,383.7,313.6,383.1,309.6L383.1,309.6z M403.1,329.5c-4-0.6-7.7-2.1-10.8-4.5l7.6-7.6c1,0.6,2.1,1,3.2,1.3
			V329.5z M403.1,293.9c-1.2,0.3-2.3,0.8-3.3,1.4l-7.6-7.6c3.1-2.4,6.8-4,10.9-4.5L403.1,293.9L403.1,293.9z M409.6,283.1
			c4.1,0.6,7.8,2.1,10.9,4.5l-7.6,7.6c-1-0.6-2.1-1.1-3.3-1.4V283.1L409.6,283.1z M409.6,329.5v-10.8c1.1-0.3,2.3-0.7,3.2-1.3
			l7.6,7.6C417.3,327.3,413.6,328.9,409.6,329.5L409.6,329.5z M425.1,320.5l-7.7-7.7c0.6-1,1.1-2.1,1.4-3.2h10.7
			C429,313.6,427.5,317.4,425.1,320.5L425.1,320.5z M418.8,303.1c-0.3-1.2-0.8-2.2-1.4-3.3l7.6-7.6c2.4,3.1,3.9,6.8,4.5,10.9
			L418.8,303.1L418.8,303.1z"/>
		<path class="st0" d="M510.7,280.2c-0.1-5-1.7-9.8-4.4-13.9l-2-3l-8.8-23.3c-1.6-4.4-5.7-7.5-10.4-7.9c-8.7-0.7-23.5-1.9-37.5-2.4
			C398.2,203.6,307,177.3,229.8,206c-15.9,5.9-61.2,28.9-61.2,28.9s-73.6-1.8-126,16.9c-20.7,7.4-33.7,27.9-31.5,49.7
			c0.4,4.4,1.1,8.2,1.7,11.4c1,5,5.1,8.7,10.1,9.3l32.7,3.6c-2.1-4.3-3.5-8.9-4.1-13.9c-0.3-2-0.4-3.9-0.4-5.7
			c0-25,20.3-45.3,45.3-45.3c25,0,45.3,20.3,45.3,45.3c0,1.3-0.1,2.6-0.2,3.9c-0.5,5.6-2,10.9-4.4,15.8h226.6l1.8-0.1
			c-2-4.2-3.4-8.8-4-13.7c-0.3-2-0.4-3.9-0.4-5.7c0-24.9,20.3-45.1,45.1-45.1c24.9,0,45.2,20.2,45.2,45.1c0,1.3-0.1,2.6-0.2,3.9
			c-0.3,3.7-1.1,7.2-2.3,10.6l5.1-0.3l35.1-4.6c6.1-0.8,11.5-4.4,14.6-9.8l3.5-6c2.4-4.2,3.6-9,3.5-13.8L510.7,280.2z M386.3,235.3
			H214.5c0,0,1-4.1-3.5-9c0,0,43.9-28.3,111.8-21.2c18.7,1.9,41.5,3.3,72.5,19.4L386.3,235.3z"/>
	</g>
</g>
</svg>
