<?xml version="1.0" encoding="utf-8"?>
<!-- Generator: Adobe Illustrator 24.3.0, SVG Export Plug-In . SVG Version: 6.00 Build 0)  -->
<svg version="1.1" id="Layer_1" xmlns="http://www.w3.org/2000/svg" xmlns:xlink="http://www.w3.org/1999/xlink" x="0px" y="0px"
	 viewBox="0 0 520 520" style="enable-background:new 0 0 520 520;" xml:space="preserve">
<style type="text/css">
	.st0{fill:#0468FC;}
</style>
<g>
	<path class="st0" d="M90.6,283.8c-21.8,0-39.5,17.7-39.5,39.5c0,1.7,0.1,3.4,0.3,5c2.4,19.4,19,34.5,39.1,34.5
		c20.7,0,37.6-15.9,39.3-36.1c0.1-1.1,0.2-2.3,0.2-3.4C130.1,301.4,112.4,283.8,90.6,283.8L90.6,283.8z M70.8,308.4l8.1,8.1
		c-0.6,1.1-1.1,2.2-1.4,3.5H66.1C66.6,315.6,68.3,311.7,70.8,308.4L70.8,308.4z M66,326.7h11.4c0.3,1.2,0.8,2.4,1.4,3.4l-8.1,8.1
		C68.3,335,66.6,331,66,326.7L66,326.7z M87.1,347.8c-4.3-0.6-8.2-2.3-11.5-4.8l8-8c1.1,0.6,2.2,1.1,3.4,1.4L87.1,347.8L87.1,347.8z
		 M87.1,310.1c-1.3,0.3-2.4,0.8-3.5,1.5l-8-8.1c3.3-2.5,7.2-4.2,11.5-4.8V310.1z M94,298.8c4.3,0.6,8.2,2.2,11.5,4.8l-8.1,8.1
		c-1.1-0.6-2.2-1.1-3.5-1.5L94,298.8L94,298.8z M94,347.8v-11.4c1.2-0.3,2.4-0.8,3.4-1.4l8.1,8C102.1,345.5,98.3,347.2,94,347.8
		L94,347.8z M110.3,338.3l-8.1-8.1c0.6-1.1,1.2-2.2,1.5-3.4H115C114.4,331,112.8,335,110.3,338.3L110.3,338.3z M103.7,319.9
		c-0.3-1.2-0.8-2.4-1.4-3.5l8.1-8.1c2.5,3.3,4.1,7.2,4.7,11.5L103.7,319.9L103.7,319.9z"/>
	<g>
		<path class="st0" d="M423.1,283.8c-21.8,0-39.5,17.7-39.5,39.5c0,1.7,0.1,3.4,0.3,5c2.4,19.4,19,34.5,39.1,34.5
			c20.7,0,37.6-15.9,39.3-36.1c0.1-1.1,0.2-2.3,0.2-3.4C462.6,301.4,444.9,283.8,423.1,283.8L423.1,283.8z M403.3,308.4l8.1,8.1
			c-0.6,1.1-1.1,2.2-1.4,3.5h-11.4C399.2,315.6,400.8,311.7,403.3,308.4L403.3,308.4z M398.6,326.7H410c0.3,1.2,0.8,2.4,1.4,3.4
			l-8.1,8.1C400.8,335,399.1,331,398.6,326.7L398.6,326.7z M419.7,347.8c-4.3-0.6-8.2-2.3-11.5-4.8l8-8c1.1,0.6,2.2,1.1,3.4,1.4
			v11.4H419.7z M419.7,310.1c-1.2,0.3-2.4,0.8-3.5,1.5l-8.1-8.1c3.3-2.5,7.2-4.2,11.5-4.8L419.7,310.1L419.7,310.1z M426.5,298.8
			c4.3,0.6,8.2,2.2,11.5,4.8l-8.1,8.1c-1.1-0.6-2.2-1.1-3.5-1.5L426.5,298.8L426.5,298.8z M426.5,347.8v-11.4
			c1.2-0.3,2.4-0.8,3.4-1.4l8.1,8C434.7,345.5,430.8,347.2,426.5,347.8L426.5,347.8z M442.9,338.3l-8.1-8.1c0.6-1.1,1.2-2.2,1.5-3.4
			h11.3C447,331,445.4,335,442.9,338.3L442.9,338.3z M436.3,319.9c-0.3-1.2-0.8-2.4-1.4-3.5l8.1-8.1c2.5,3.3,4.2,7.2,4.7,11.5
			L436.3,319.9L436.3,319.9z"/>
		<path class="st0" d="M507.2,271.2l-7.6-7.3V241c0-6-2.2-11.8-6.2-16.2l-28.1-31.1c-0.1-6.5-4.8-11.9-11.1-13.1
			c-33.4-6.3-136.9-22.5-218.8-0.5c-50.6,13.6-102.1,41-102.1,41s-89.4,11.4-110.8,39.3c-7.5,9.7-10.6,22.5-11.7,34
			c-1.6,16.1,9,30.7,24.7,34.3l8.2,1.9c0-0.4-0.2-0.9-0.2-1.4c-0.3-2.1-0.4-4.1-0.4-6c0-26.1,21.3-47.4,47.4-47.4
			c26.2,0,47.5,21.3,47.5,47.4c0,1.4-0.1,2.7-0.2,4c-0.1,1.6-0.3,3.2-0.6,4.7l239.5,0.5c-0.2-1.1-0.4-2.2-0.6-3.3
			c-0.3-2.1-0.4-4.1-0.4-6c0-26.1,21.3-47.4,47.4-47.4c26.2,0,47.5,21.3,47.5,47.4c0,1.4-0.1,2.7-0.2,4c-0.1,1.8-0.4,3.6-0.8,5.4
			h3.3l13.6-7.5c14.2-7.8,23.3-22.5,23.9-38.6l0.3-7.1C510.7,276.4,509.5,273.4,507.2,271.2L507.2,271.2z M180.4,224.4l3.7-14.7
			c0,0,55.5-29,148.3-25.8v43.3l-148.7,11.6C183.7,238.8,184.5,229.6,180.4,224.4L180.4,224.4z M418.6,220.3l-69.9,5.5v-41.1
			c23,1.7,48,5.3,74.8,11.8c2.7,0.6,4.9,2.7,5.8,5.3c0.9,2.7,0.3,5.6-1.5,7.7L418.6,220.3z"/>
	</g>
</g>
</svg>
