<?xml version="1.0" encoding="utf-8"?>
<!-- Generator: Adobe Illustrator 24.3.0, SVG Export Plug-In . SVG Version: 6.00 Build 0)  -->
<svg version="1.1" id="Layer_1" xmlns="http://www.w3.org/2000/svg" xmlns:xlink="http://www.w3.org/1999/xlink" x="0px" y="0px"
	 viewBox="0 0 520 520" style="enable-background:new 0 0 520 520;" xml:space="preserve">
<style type="text/css">
	.st0{fill:#0468FC;}
</style>
<g>
	<path class="st0" d="M100.2,264.3c-22,0-39.8,17.8-39.8,39.8c0,1.7,0.1,3.4,0.3,5c2.5,19.6,19.2,34.8,39.4,34.8
		c20.8,0,37.9-16,39.6-36.4c0.1-1.1,0.2-2.2,0.2-3.4C140,282.1,122.2,264.3,100.2,264.3L100.2,264.3z M80.2,289.1l8.1,8.1
		c-0.6,1.1-1.1,2.3-1.4,3.5H75.5C76.1,296.4,77.7,292.5,80.2,289.1L80.2,289.1z M75.4,307.6H87c0.3,1.2,0.8,2.4,1.4,3.5l-8.1,8.1
		C77.8,315.9,76.1,312,75.4,307.6L75.4,307.6z M96.7,328.9c-4.3-0.6-8.2-2.3-11.5-4.8l8.1-8.1c1.1,0.6,2.2,1.1,3.4,1.4V328.9z
		 M96.7,290.9c-1.3,0.3-2.4,0.8-3.5,1.5l-8.1-8.1c3.3-2.5,7.3-4.2,11.6-4.8L96.7,290.9L96.7,290.9z M103.6,279.4
		c4.3,0.6,8.3,2.3,11.6,4.8l-8.1,8.1c-1.1-0.6-2.3-1.1-3.5-1.5V279.4L103.6,279.4z M103.6,328.9v-11.5c1.2-0.3,2.4-0.8,3.4-1.4
		l8.1,8.1C111.9,326.6,107.9,328.3,103.6,328.9L103.6,328.9z M120.1,319.2l-8.2-8.1c0.6-1.1,1.2-2.2,1.5-3.5h11.4
		C124.3,312,122.7,315.9,120.1,319.2L120.1,319.2z M113.4,300.8c-0.3-1.2-0.8-2.4-1.4-3.5l8.1-8.1c2.5,3.3,4.2,7.3,4.8,11.6
		L113.4,300.8L113.4,300.8z"/>
	<g>
		<path class="st0" d="M387.1,264.3c-22,0-39.8,17.8-39.8,39.8c0,1.7,0.1,3.4,0.3,5c2.5,19.6,19.2,34.8,39.5,34.8
			c20.8,0,37.9-16,39.6-36.4c0.1-1.1,0.2-2.2,0.2-3.4C426.9,282.1,409,264.3,387.1,264.3L387.1,264.3z M367.1,289.1l8.1,8.1
			c-0.6,1.1-1.1,2.3-1.5,3.5h-11.4C362.9,296.4,364.6,292.5,367.1,289.1L367.1,289.1z M362.3,307.6h11.5c0.3,1.2,0.8,2.4,1.5,3.5
			l-8.1,8.1C364.6,315.9,362.9,312,362.3,307.6L362.3,307.6z M383.6,328.9c-4.3-0.6-8.2-2.3-11.5-4.8l8.1-8.1
			c1.1,0.6,2.2,1.1,3.4,1.4V328.9L383.6,328.9z M383.6,290.9c-1.3,0.3-2.4,0.8-3.5,1.5l-8.1-8.1c3.3-2.5,7.3-4.2,11.6-4.8
			L383.6,290.9L383.6,290.9L383.6,290.9z M390.5,279.4c4.4,0.6,8.3,2.3,11.6,4.8l-8.1,8.1c-1.1-0.6-2.3-1.1-3.5-1.5L390.5,279.4
			L390.5,279.4L390.5,279.4z M390.5,328.9v-11.5c1.2-0.3,2.4-0.8,3.5-1.4l8.1,8.1C398.7,326.6,394.8,328.3,390.5,328.9L390.5,328.9z
			 M407,319.2l-8.2-8.1c0.6-1.1,1.2-2.2,1.5-3.5h11.4C411.1,312,409.5,315.9,407,319.2L407,319.2z M400.3,300.8
			c-0.3-1.2-0.8-2.4-1.5-3.5l8.1-8.1c2.5,3.3,4.2,7.3,4.7,11.6L400.3,300.8L400.3,300.8z"/>
		<path class="st0" d="M504.1,275.6h-7.8l-2-47.2c-0.1-2.9-2.5-5.2-5.5-5.2l-108.4,1v-39.2c0-3.7-3-6.6-6.6-6.6h-5.2
			c-3.6,0-6.6,2.9-6.6,6.6v39.3l-14.4,0.1l-2.9-34.7c-0.6-7.2-6.7-12.8-14-12.8H199c-4.6,0-9,1.8-12.3,5l-44.2,42.4l-84.7,8.9
			c-11.7,1.2-22.5,7.2-29.8,16.4l-8.7,11c-6.6,4.1-10,12-8.3,19.6l2.6,11.9c1.1,5.1,5.2,9.1,10.3,10.2l28.9,6.3
			c-0.2-1.6-0.3-3.2-0.3-4.7c0-26.3,21.4-47.7,47.7-47.7c26.3,0,47.7,21.4,47.7,47.7c0,1.4-0.1,2.7-0.2,4.1c0,0.3-0.1,0.7-0.1,1
			h192.2c-0.2-1.8-0.3-3.5-0.3-5.1c0-26.3,21.4-47.7,47.7-47.7s47.7,21.4,47.7,47.7c0,1.4-0.1,2.7-0.2,4.1c0,0.3-0.1,0.7-0.1,1h24.2
			l21.9-12.1h23.5c3.6,0,6.5-2.9,6.5-6.5v-8.5C510.6,278.5,507.7,275.6,504.1,275.6L504.1,275.6z M177.1,227c0,0,2.8-6.8,0-14.6
			l17.5-21.6c1-1.2,2.5-2,4.1-2h52.3V227C250.9,227,177.1,227,177.1,227z M270.2,227v-38.1h47.4c2.8,0,5.1,2.2,5.2,5l1.4,33.1
			L270.2,227L270.2,227z"/>
	</g>
</g>
</svg>
