<?xml version="1.0" encoding="utf-8"?>
<!-- Generator: Adobe Illustrator 24.3.0, SVG Export Plug-In . SVG Version: 6.00 Build 0)  -->
<svg version="1.1" id="Layer_1" xmlns="http://www.w3.org/2000/svg" xmlns:xlink="http://www.w3.org/1999/xlink" x="0px" y="0px"
	 viewBox="0 0 520 520" style="enable-background:new 0 0 520 520;" xml:space="preserve">
<style type="text/css">
	.st0{fill:#0468FC;}
</style>
<g>
	<g>
		<path class="st0" d="M506.3,273l-3.4-0.5c1.2-46.9-6.1-56.3-14.4-85h4.5c2.1,0,3.9-1.8,3.9-3.9v-4.5c0-2.1-1.7-3.9-3.9-3.9H217.4
			c-4.1,0-8,1.1-11.5,3.1l-83.5,49.3c0,0-83.6,3.4-96.6,16.2c-6.6,6.5-12.5,19.3-14.6,34s3.5,30.5,6.7,33.9c3.2,3.4,8.4,5,8.4,5
			l2,3.9c1.3,2.5,3.9,4,6.7,4l13.4-0.3v-37.1c0-14.4,11.7-26.1,26.1-26.1h35.7c12.6,0,22.8,10.2,22.8,22.9v38.3h0.6l218.2-3.4
			l3.1,0.3v-32c0-14.4,11.7-26.1,26.1-26.1h35.7c12.6,0,22.9,10.2,22.9,22.9v41.8l30.1-6.4c1.6-0.3,2.9-1.4,3.7-2.9l2.2-4.4l30.5-4
			c2.7-0.3,4.7-2.6,4.7-5.3v-24.6C510.8,275.6,508.9,273.4,506.3,273L506.3,273z M244.1,230.1c-0.7,0.7-1.6,1.1-2.6,1.1h-66.4
			c0,0,4.1-2.1,6.2-5.1c2.1-3,0.9-10-1.4-12.4c-2.2-2.2-6.6-3.7-6.6-3.7l33.4-20.6c2.1-1.3,4.6-2,7.1-2h28.3c1,0,1.9,0.4,2.5,1.1
			c0.7,0.7,1,1.6,1,2.5l-0.5,36.4C245.2,228.4,244.8,229.4,244.1,230.1L244.1,230.1z M327.6,227.1c-2.2,2.7-5.5,4.3-9.1,4.4
			l-53.2,1.2c-1,0-1.9-0.4-2.5-1c-0.7-0.7-1.1-1.6-1.1-2.5V191c0-1.9,1.6-3.5,3.5-3.5h59c1.8,0,3.3,1.4,3.5,3.2l2.4,26.7
			C330.8,220.9,329.9,224.4,327.6,227.1L327.6,227.1z M485,227.2c-0.3,0.5-0.9,0.9-1.5,0.9l-108.1,0.8c-4.7,0-9-2.4-11.6-6.3
			l-11.3-30.3c-0.4-1.1-0.3-2.3,0.4-3.2c0.7-0.9,1.7-1.5,2.9-1.5h114.3c1.5,0,2.9,1,3.4,2.4l11.5,35.6
			C485.3,226,485.3,226.6,485,227.2L485,227.2z"/>
	</g>
	<path class="st0" d="M90.8,268.6c-21.3,0-38.6,17.2-38.6,38.5c0,1.6,0.1,3.3,0.3,4.8c2.4,19,18.6,33.7,38.2,33.7
		c20.2,0,36.7-15.5,38.4-35.3c0.1-1.1,0.2-2.2,0.2-3.3C129.4,285.9,112.1,268.6,90.8,268.6L90.8,268.6z M71.5,292.7l7.9,7.9
		c-0.6,1.1-1.1,2.2-1.4,3.4H66.9C67.5,299.7,69.1,295.9,71.5,292.7L71.5,292.7z M66.8,310.6H78c0.3,1.2,0.8,2.3,1.4,3.3l-7.9,7.9
		C69.1,318.6,67.4,314.8,66.8,310.6L66.8,310.6z M87.5,331.1c-4.2-0.6-8-2.2-11.2-4.6l7.8-7.9c1,0.6,2.2,1,3.3,1.4L87.5,331.1
		L87.5,331.1z M87.5,294.4c-1.2,0.3-2.3,0.8-3.4,1.4l-7.8-7.9c3.2-2.5,7-4.1,11.2-4.7L87.5,294.4L87.5,294.4L87.5,294.4z
		 M94.2,283.3c4.2,0.6,8.1,2.2,11.3,4.7l-7.8,7.9c-1.1-0.6-2.2-1.1-3.4-1.4L94.2,283.3L94.2,283.3L94.2,283.3z M94.2,331.1V320
		c1.2-0.3,2.3-0.8,3.4-1.4l7.8,7.9C102.1,328.9,98.3,330.6,94.2,331.1L94.2,331.1z M110.1,321.8l-7.9-7.9c0.6-1,1.1-2.1,1.4-3.3
		h11.1C114.2,314.8,112.6,318.6,110.1,321.8L110.1,321.8z M103.7,303.9c-0.3-1.2-0.8-2.4-1.4-3.4l7.8-7.9c2.5,3.2,4.1,7,4.7,11.3
		H103.7z"/>
	<path class="st0" d="M397.4,268.6c-21.3,0-38.6,17.2-38.6,38.5c0,1.6,0.1,3.3,0.3,4.8c2.4,19,18.6,33.7,38.2,33.7
		c20.2,0,36.7-15.5,38.4-35.3c0.1-1.1,0.2-2.2,0.2-3.3C436,285.9,418.7,268.6,397.4,268.6L397.4,268.6z M378.1,292.7l7.9,7.9
		c-0.6,1.1-1.1,2.2-1.4,3.4h-11.1C374,299.7,375.6,295.9,378.1,292.7L378.1,292.7z M373.4,310.6h11.2c0.3,1.2,0.8,2.3,1.4,3.3
		l-7.9,7.9C375.7,318.6,374,314.8,373.4,310.6L373.4,310.6z M394,331.1c-4.2-0.6-8-2.2-11.2-4.6l7.9-7.9c1,0.6,2.2,1,3.3,1.4V331.1
		L394,331.1z M394,294.4c-1.2,0.3-2.4,0.8-3.4,1.4l-7.9-7.9c3.2-2.5,7-4.1,11.3-4.7V294.4z M400.7,283.3c4.2,0.6,8,2.2,11.3,4.7
		l-7.9,7.9c-1-0.6-2.2-1.1-3.4-1.4V283.3z M400.7,331.1V320c1.2-0.3,2.3-0.8,3.4-1.4l7.8,7.9C408.7,328.9,404.9,330.6,400.7,331.1
		L400.7,331.1z M416.7,321.8l-7.9-7.9c0.6-1,1.1-2.1,1.5-3.3h11.1C420.7,314.8,419.1,318.6,416.7,321.8L416.7,321.8z M410.2,303.9
		c-0.3-1.2-0.8-2.4-1.4-3.4l7.9-7.9c2.4,3.2,4,7,4.6,11.3H410.2z"/>
</g>
</svg>
