<?xml version="1.0" encoding="utf-8"?>
<!-- Generator: Adobe Illustrator 24.3.0, SVG Export Plug-In . SVG Version: 6.00 Build 0)  -->
<svg version="1.1" id="Layer_1" xmlns="http://www.w3.org/2000/svg" xmlns:xlink="http://www.w3.org/1999/xlink" x="0px" y="0px"
	 viewBox="0 0 520 520" style="enable-background:new 0 0 520 520;" xml:space="preserve">
<style type="text/css">
	.st0{fill:#0468FC;}
</style>
<g>
	<path class="st0" d="M103.2,293.9C82,294,65.1,311.4,65.3,332.5c0,1.6,0.2,3.2,0.4,4.8c2.6,18.9,18.8,33.3,38.3,33.1
		c20.1-0.2,36.3-15.7,37.8-35.4c0.1-1.1,0.1-2.2,0.1-3.3C141.7,310.6,124.3,293.7,103.2,293.9L103.2,293.9z M100,308.4l0.1,11
		c-1.2,0.3-2.3,0.8-3.4,1.5l-7.9-7.7C92.1,310.7,95.8,309,100,308.4L100,308.4z M84.2,317.9l7.9,7.7c-0.6,1.1-1.1,2.2-1.4,3.4
		l-11,0.1C80.3,324.9,81.8,321.1,84.2,317.9L84.2,317.9z M79.8,335.7l11.1-0.1c0.3,1.2,0.8,2.3,1.4,3.3l-7.8,7.9
		C82.1,343.7,80.4,339.9,79.8,335.7L79.8,335.7z M89.3,351.5l7.7-7.9c1,0.6,2.2,1,3.3,1.3l0.1,11C96.3,355.4,92.5,353.8,89.3,351.5
		L89.3,351.5z M127.3,328.7l-11,0.1c-0.3-1.2-0.8-2.3-1.4-3.4l7.7-7.9C125.1,320.7,126.7,324.5,127.3,328.7L127.3,328.7z
		 M106.6,308.4c4.2,0.5,8,2.1,11.2,4.5l-7.7,7.9c-1.1-0.6-2.2-1.1-3.4-1.4L106.6,308.4z M107.1,355.9l-0.1-11
		c1.2-0.3,2.3-0.8,3.3-1.4l7.9,7.7C115,353.6,111.2,355.3,107.1,355.9L107.1,355.9z M122.9,346.5l-7.9-7.8c0.6-1,1.1-2.1,1.4-3.4
		l11-0.1C126.8,339.5,125.2,343.3,122.9,346.5L122.9,346.5z"/>
	<g>
		<path class="st0" d="M423.5,293.9c-21.1,0.2-38.1,17.5-37.9,38.6c0,1.6,0.2,3.2,0.4,4.8c2.5,18.9,18.8,33.3,38.3,33.1
			c20-0.2,36.3-15.7,37.8-35.4c0.1-1.1,0.1-2.2,0.1-3.3C462,310.6,444.7,293.7,423.5,293.9L423.5,293.9z M420.4,308.4l0.1,11
			c-1.2,0.3-2.3,0.8-3.4,1.5l-7.9-7.7C412.4,310.7,416.2,309,420.4,308.4L420.4,308.4z M404.6,317.9l7.9,7.7
			c-0.6,1.1-1.1,2.2-1.4,3.4l-11,0.1C400.6,324.9,402.2,321.1,404.6,317.9L404.6,317.9z M400.1,335.7l11.1-0.1
			c0.3,1.2,0.8,2.3,1.4,3.3l-7.8,7.9C402.4,343.7,400.7,339.9,400.1,335.7L400.1,335.7z M409.6,351.5l7.7-7.9c1,0.6,2.2,1,3.3,1.3
			l0.1,11C416.6,355.4,412.8,353.8,409.6,351.5L409.6,351.5z M447.6,328.7l-11,0.1c-0.3-1.2-0.8-2.3-1.4-3.4l7.7-7.9
			C445.4,320.7,447,324.5,447.6,328.7L447.6,328.7z M427,308.4c4.2,0.5,8,2.1,11.2,4.5l-7.7,7.9c-1.1-0.6-2.2-1.1-3.4-1.4L427,308.4
			z M427.4,355.9l-0.1-11c1.2-0.3,2.3-0.8,3.3-1.4l7.9,7.7C435.3,353.6,431.6,355.3,427.4,355.9L427.4,355.9z M443.2,346.5l-7.9-7.8
			c0.6-1,1.1-2.1,1.4-3.4l11-0.1C447.1,339.5,445.6,343.3,443.2,346.5L443.2,346.5z"/>
		<path class="st0" d="M505.6,311l-4.6-1.7c0,0,0.1-109.3-23.9-142.3c-4-5.6-181.5-16.6-246.1,9.5C204.6,187.2,123.4,242,123.4,242
			s-68.7,10.7-90.1,23.9c-9.5,7.5-15.3,22.9-15.3,22.9l-5.8,6.2c-1.4,1.6-2.3,3.6-2.3,5.8v10.4c0,2.7,2.2,4.9,4.9,4.9v18.2
			c-0.9,0-1.7,0.5-2.1,1.3c-0.3,0.8-0.3,1.8,0.3,2.4c2,1.7,11.5,2.9,18.6,3.7c6.6,0.8,27.8,2.9,27.8,2.9c-0.6-2-1.1-4.1-1.3-6.2
			c-0.3-2.1-0.4-4-0.4-5.8c-0.2-25.3,20.2-46.1,45.5-46.4c25.5,0,46.2,20.4,46.4,45.5c0,1.3-0.1,2.6-0.1,4c-0.2,2.8-0.7,5.5-1.4,8.1
			l231-2.8c-0.2-0.9-0.4-1.8-0.5-2.7c-0.3-2.1-0.4-4-0.4-5.8c-0.2-25.3,20.2-46.1,45.5-46.4c25.5,0,46.1,20.4,46.4,45.5
			c0,1.3-0.1,2.6-0.2,4c-0.1,1.4-0.3,2.8-0.5,4.2l29.6-2.5c5.3-0.5,9.5-4.6,10-9.9l1-9.9C510.1,314.7,508.4,312,505.6,311L505.6,311
			z M270.4,238.6c-0.4,2.5-2.5,4.2-5,4.2h-73.5v-8.4c0-5.5-3.8-10.2-9.2-11.3l0.7-8.4c0,0,33.2-25.7,89.4-26.5
			c1.5,0,2.9,0.6,3.9,1.8c1,1.1,1.4,2.6,1.1,4.1L270.4,238.6z"/>
	</g>
</g>
</svg>
