<svg xmlns="http://www.w3.org/2000/svg" shape-rendering="geometricPrecision" text-rendering="geometricPrecision" image-rendering="optimizeQuality" fill-rule="evenodd" clip-rule="evenodd" viewBox="0 0 508 511.664"><path fill="#EE4042" fill-rule="nonzero" d="M242.266 0c66.9 0 127.467 27.118 171.308 70.959 43.84 43.84 70.958 104.408 70.958 171.307 0 66.9-27.118 127.467-70.958 171.308-43.841 43.84-104.408 70.958-171.308 70.958-66.899 0-127.467-27.118-171.308-70.958C27.118 369.733 0 309.166 0 242.266c0-66.899 27.118-127.467 70.958-171.307C114.799 27.118 175.367 0 242.266 0z"/><path fill="#F54" d="M242.266 6.198c130.378 0 236.068 105.69 236.068 236.068 0 130.378-105.69 236.069-236.068 236.069-130.378 0-236.069-105.691-236.069-236.069S111.888 6.198 242.266 6.198z"/><path fill="#fff" d="M242.266 35.555c114.164 0 206.711 92.548 206.711 206.711 0 114.164-92.547 206.712-206.711 206.712-114.165 0-206.712-92.548-206.712-206.712 0-114.163 92.547-206.711 206.712-206.711z"/><path fill="#1A1A1A" d="M197.092 102.927c21.453 0 38.854 26.67 38.854 59.552s-17.401 59.546-38.854 59.546c-21.457 0-38.855-26.663-38.855-59.546 0-32.884 17.398-59.552 38.855-59.552zm49.389 144.152c45.503.092 51.149 30.227 89.516 81.821 19.115 37.53-5.712 61.192-48.255 51.056-19.295-9.837-32.884-13.314-46.497-12.838-23.595.828-29.546 16.393-57.007 15.285-21.184-.575-30.705-9.443-32.557-22.969-1.978-14.374 3.56-23.466 10.307-35.356 26.234-46.258 53.379-82.79 84.492-76.999h.001zm-124.447-55.841c-16.036 6.343-21.158 31.418-11.435 55.996 9.723 24.578 30.612 39.361 46.646 33.018 16.037-6.339 21.158-31.419 11.435-55.992-9.722-24.578-30.611-39.366-46.646-33.022zm240.462 0c16.036 6.343 21.158 31.418 11.435 55.996-9.723 24.578-30.612 39.361-46.646 33.018-16.036-6.339-21.158-31.419-11.435-55.992 9.723-24.578 30.612-39.366 46.646-33.022zm-75.753-89.165c21.454 0 38.855 26.669 38.855 59.551 0 32.882-17.401 59.547-38.855 59.547-21.457 0-38.854-26.663-38.854-59.547 0-32.883 17.396-59.551 38.854-59.551z"/><path fill="#fff" fill-rule="nonzero" d="M388.908 273.48c32.884 0 62.658 13.333 84.209 34.883C494.669 329.915 508 359.688 508 392.572c0 32.883-13.331 62.656-34.883 84.208-21.552 21.553-51.325 34.883-84.209 34.883-32.883 0-62.656-13.33-84.208-34.883-21.551-21.551-34.883-51.325-34.883-84.208 0-32.884 13.332-62.658 34.883-84.209 21.551-21.55 51.325-34.883 84.208-34.883z"/><path fill="#10A64A" d="M388.908 295.24c53.755 0 97.332 43.577 97.332 97.332 0 53.755-43.577 97.331-97.332 97.331-53.754 0-97.331-43.576-97.331-97.331s43.577-97.332 97.331-97.332z"/><path fill="#fff" d="M358.61 376.011l17.215 16.254 40.986-41.546c3.383-3.431 5.499-6.181 9.667-1.892l13.52 13.853c4.44 4.387 4.215 6.96.03 11.049l-56.482 55.574c-8.834 8.652-7.294 9.181-16.25.298l-31.44-31.262c-1.868-2.014-1.667-4.059.378-6.078l15.69-16.275c2.379-2.506 4.277-2.287 6.686.025z"/></svg>